<svg width="24" height="24" viewBox="0 0 24 24" fill="none" xmlns="http://www.w3.org/2000/svg">
<path d="M6 6C2.68629 6 0 8.68629 0 12C0 15.3137 2.68629 18 6 18H18C21.3137 18 24 15.3137 24 12C24 8.68629 21.3137 6 18 6L6 6Z" fill="url(#paint0_linear_110_391)"/>
<g filter="url(#filter0_f_110_391)">
<path d="M6 16C8.20914 16 10 14.2091 10 12C10 9.79086 8.20914 8 6 8C3.79086 8 2 9.79086 2 12C2 14.2091 3.79086 16 6 16Z" fill="url(#paint1_linear_110_391)"/>
</g>
<path d="M6.5 10C6.5 9.72386 6.27614 9.5 6 9.5C5.72386 9.5 5.5 9.72386 5.5 10V14C5.5 14.2761 5.72386 14.5 6 14.5C6.27614 14.5 6.5 14.2761 6.5 14V10Z" fill="url(#paint2_linear_110_391)"/>
<path d="M8 12.5C8.27614 12.5 8.5 12.2761 8.5 12C8.5 11.7239 8.27614 11.5 8 11.5H4C3.72386 11.5 3.5 11.7239 3.5 12C3.5 12.2761 3.72386 12.5 4 12.5H8Z" fill="url(#paint3_linear_110_391)"/>
<g style="mix-blend-mode:multiply" filter="url(#filter1_f_110_391)">
<path d="M15.5 15.1591C16.4163 15.1591 17.1591 14.4163 17.1591 13.5C17.1591 12.5837 16.4163 11.8409 15.5 11.8409C14.5837 11.8409 13.8409 12.5837 13.8409 13.5C13.8409 14.4163 14.5837 15.1591 15.5 15.1591Z" fill="url(#paint4_linear_110_391)"/>
<path d="M15.5 15.1591C16.4163 15.1591 17.1591 14.4163 17.1591 13.5C17.1591 12.5837 16.4163 11.8409 15.5 11.8409C14.5837 11.8409 13.8409 12.5837 13.8409 13.5C13.8409 14.4163 14.5837 15.1591 15.5 15.1591Z" fill="black" fill-opacity="0.2"/>
</g>
<g style="mix-blend-mode:multiply" filter="url(#filter2_f_110_391)">
<path d="M19.7678 11.8913C20.6841 11.8913 21.4269 11.1485 21.4269 10.2322C21.4269 9.31594 20.6841 8.57315 19.7678 8.57315C18.8516 8.57315 18.1088 9.31594 18.1088 10.2322C18.1088 11.1485 18.8516 11.8913 19.7678 11.8913Z" fill="url(#paint5_linear_110_391)"/>
<path d="M19.7678 11.8913C20.6841 11.8913 21.4269 11.1485 21.4269 10.2322C21.4269 9.31594 20.6841 8.57315 19.7678 8.57315C18.8516 8.57315 18.1088 9.31594 18.1088 10.2322C18.1088 11.1485 18.8516 11.8913 19.7678 11.8913Z" fill="black" fill-opacity="0.2"/>
</g>
<path d="M15.5 15C16.3284 15 17 14.3284 17 13.5C17 12.6716 16.3284 12 15.5 12C14.6716 12 14 12.6716 14 13.5C14 14.3284 14.6716 15 15.5 15Z" fill="url(#paint6_linear_110_391)"/>
<g filter="url(#filter3_f_110_391)">
<path d="M15.5 15C16.3284 15 17 14.3284 17 13.5C17 12.6716 16.3284 12 15.5 12C14.6716 12 14 12.6716 14 13.5C14 14.3284 14.6716 15 15.5 15Z" stroke="url(#paint7_linear_110_391)" stroke-width="0.09999"/>
<path d="M15.5 15C16.3284 15 17 14.3284 17 13.5C17 12.6716 16.3284 12 15.5 12C14.6716 12 14 12.6716 14 13.5C14 14.3284 14.6716 15 15.5 15Z" stroke="black" stroke-width="0.09999"/>
</g>
<path d="M19.7678 11.7322C20.5962 11.7322 21.2678 11.0606 21.2678 10.2322C21.2678 9.40378 20.5962 8.73221 19.7678 8.73221C18.9394 8.73221 18.2678 9.40378 18.2678 10.2322C18.2678 11.0606 18.9394 11.7322 19.7678 11.7322Z" fill="url(#paint8_linear_110_391)"/>
<path d="M10.5 7.5C10.7761 7.5 11 7.27614 11 7C11 6.72386 10.7761 6.5 10.5 6.5C10.2239 6.5 10 6.72386 10 7C10 7.27614 10.2239 7.5 10.5 7.5Z" fill="url(#paint9_linear_110_391)"/>
<path d="M14 7.5C14.2761 7.5 14.5 7.27614 14.5 7C14.5 6.72386 14.2761 6.5 14 6.5C13.7239 6.5 13.5 6.72386 13.5 7C13.5 7.27614 13.7239 7.5 14 7.5Z" fill="url(#paint10_linear_110_391)"/>
<g filter="url(#filter4_f_110_391)">
<path d="M19.7678 11.7322C20.5962 11.7322 21.2678 11.0606 21.2678 10.2322C21.2678 9.40378 20.5962 8.73221 19.7678 8.73221C18.9394 8.73221 18.2678 9.40378 18.2678 10.2322C18.2678 11.0606 18.9394 11.7322 19.7678 11.7322Z" stroke="url(#paint11_linear_110_391)" stroke-width="0.09999"/>
<path d="M19.7678 11.7322C20.5962 11.7322 21.2678 11.0606 21.2678 10.2322C21.2678 9.40378 20.5962 8.73221 19.7678 8.73221C18.9394 8.73221 18.2678 9.40378 18.2678 10.2322C18.2678 11.0606 18.9394 11.7322 19.7678 11.7322Z" stroke="black" stroke-width="0.09999"/>
</g>
<defs>
<filter id="filter0_f_110_391" x="1.0001" y="7.0001" width="9.9998" height="9.9998" filterUnits="userSpaceOnUse" color-interpolation-filters="sRGB">
<feFlood flood-opacity="0" result="BackgroundImageFix"/>
<feBlend mode="normal" in="SourceGraphic" in2="BackgroundImageFix" result="shape"/>
<feGaussianBlur stdDeviation="0.49995" result="effect1_foregroundBlur_110_391"/>
</filter>
<filter id="filter1_f_110_391" x="13.641" y="11.641" width="3.71808" height="3.71808" filterUnits="userSpaceOnUse" color-interpolation-filters="sRGB">
<feFlood flood-opacity="0" result="BackgroundImageFix"/>
<feBlend mode="normal" in="SourceGraphic" in2="BackgroundImageFix" result="shape"/>
<feGaussianBlur stdDeviation="0.09999" result="effect1_foregroundBlur_110_391"/>
</filter>
<filter id="filter2_f_110_391" x="17.9088" y="8.37317" width="3.71808" height="3.71808" filterUnits="userSpaceOnUse" color-interpolation-filters="sRGB">
<feFlood flood-opacity="0" result="BackgroundImageFix"/>
<feBlend mode="normal" in="SourceGraphic" in2="BackgroundImageFix" result="shape"/>
<feGaussianBlur stdDeviation="0.09999" result="effect1_foregroundBlur_110_391"/>
</filter>
<filter id="filter3_f_110_391" x="13.75" y="11.75" width="3.49994" height="3.49994" filterUnits="userSpaceOnUse" color-interpolation-filters="sRGB">
<feFlood flood-opacity="0" result="BackgroundImageFix"/>
<feBlend mode="normal" in="SourceGraphic" in2="BackgroundImageFix" result="shape"/>
<feGaussianBlur stdDeviation="0.09999" result="effect1_foregroundBlur_110_391"/>
</filter>
<filter id="filter4_f_110_391" x="18.0179" y="8.48224" width="3.49994" height="3.49994" filterUnits="userSpaceOnUse" color-interpolation-filters="sRGB">
<feFlood flood-opacity="0" result="BackgroundImageFix"/>
<feBlend mode="normal" in="SourceGraphic" in2="BackgroundImageFix" result="shape"/>
<feGaussianBlur stdDeviation="0.09999" result="effect1_foregroundBlur_110_391"/>
</filter>
<linearGradient id="paint0_linear_110_391" x1="3" y1="6" x2="22.7667" y2="10.9614" gradientUnits="userSpaceOnUse">
<stop stop-color="#C5CCD3"/>
<stop offset="1" stop-color="#9B9DA4"/>
</linearGradient>
<linearGradient id="paint1_linear_110_391" x1="10" y1="16" x2="2" y2="8" gradientUnits="userSpaceOnUse">
<stop stop-color="#D9DEE2"/>
<stop offset="1" stop-color="#9799A0"/>
</linearGradient>
<linearGradient id="paint2_linear_110_391" x1="6" y1="9.5" x2="6" y2="14.5" gradientUnits="userSpaceOnUse">
<stop stop-color="#555A61"/>
<stop offset="1" stop-color="#363C43"/>
</linearGradient>
<linearGradient id="paint3_linear_110_391" x1="8.5" y1="12" x2="3.5" y2="12" gradientUnits="userSpaceOnUse">
<stop stop-color="#555A61"/>
<stop offset="1" stop-color="#363C43"/>
</linearGradient>
<linearGradient id="paint4_linear_110_391" x1="17.159" y1="15.1591" x2="13.841" y2="11.841" gradientUnits="userSpaceOnUse">
<stop stop-color="#C5CCD3"/>
<stop offset="1" stop-color="#9B9DA4"/>
</linearGradient>
<linearGradient id="paint5_linear_110_391" x1="21.4268" y1="11.8913" x2="18.1087" y2="8.57316" gradientUnits="userSpaceOnUse">
<stop stop-color="#C5CCD3"/>
<stop offset="1" stop-color="#9B9DA4"/>
</linearGradient>
<linearGradient id="paint6_linear_110_391" x1="14" y1="12" x2="17" y2="15" gradientUnits="userSpaceOnUse">
<stop stop-color="#26A2E6"/>
<stop offset="1" stop-color="#0666B3"/>
</linearGradient>
<linearGradient id="paint7_linear_110_391" x1="14" y1="12" x2="17" y2="15" gradientUnits="userSpaceOnUse">
<stop stop-color="#0666B3"/>
<stop offset="1" stop-color="#26A2E6"/>
</linearGradient>
<linearGradient id="paint8_linear_110_391" x1="18.2678" y1="8.73221" x2="21.2678" y2="11.7322" gradientUnits="userSpaceOnUse">
<stop stop-color="#26A2E6"/>
<stop offset="1" stop-color="#0666B3"/>
</linearGradient>
<linearGradient id="paint9_linear_110_391" x1="10" y1="6.5" x2="11" y2="7.5" gradientUnits="userSpaceOnUse">
<stop stop-color="#555A61"/>
<stop offset="1" stop-color="#5C616B"/>
</linearGradient>
<linearGradient id="paint10_linear_110_391" x1="13.5" y1="6.5" x2="14.5" y2="7.5" gradientUnits="userSpaceOnUse">
<stop stop-color="#555A61"/>
<stop offset="1" stop-color="#5C616B"/>
</linearGradient>
<linearGradient id="paint11_linear_110_391" x1="18.2678" y1="8.73221" x2="21.2678" y2="11.7322" gradientUnits="userSpaceOnUse">
<stop stop-color="#0666B3"/>
<stop offset="1" stop-color="#26A2E6"/>
</linearGradient>
</defs>
</svg>
