<svg width="24" height="24" viewBox="0 0 24 24" fill="none" xmlns="http://www.w3.org/2000/svg">
<path d="M18.446 3.97706C19.1323 3.40571 20.1485 3.48239 20.7413 4.15029C21.3326 4.81634 21.2905 5.83093 20.646 6.44561L8.96651 17.5853L6.04724 14.2968L18.446 3.97706Z" fill="#D9D9D9"/>
<path d="M18.446 3.97706C19.1323 3.40571 20.1485 3.48239 20.7413 4.15029C21.3326 4.81634 21.2905 5.83093 20.646 6.44561L8.96651 17.5853L6.04724 14.2968L18.446 3.97706Z" fill="url(#paint0_linear_110_363)"/>
<path d="M7.93468 19.0005C8.53298 18.7316 9.06706 18.2511 9.425 17.953C10.5156 16.9846 10.6608 15.214 9.65525 14.0813C8.64973 12.9486 6.91635 12.8455 5.78365 13.8511C5.34743 14.2383 5.06391 14.7335 4.93763 15.2608C4.64026 16.5022 4.28246 18.2115 3.09105 18.6698L2.79516 18.7836C2.53846 18.8825 2.57263 19.2446 2.84428 19.2875C4.06873 19.4813 5.00354 19.4195 5.47199 19.4101C5.94046 19.401 7.33639 19.2695 7.93468 19.0005Z" fill="url(#paint1_linear_110_363)"/>
<defs>
<linearGradient id="paint0_linear_110_363" x1="8.78001" y1="1.25223" x2="19.5218" y2="17.9923" gradientUnits="userSpaceOnUse">
<stop offset="0.321254" stop-color="#B4BCC5"/>
<stop offset="0.673902" stop-color="#62676B"/>
</linearGradient>
<linearGradient id="paint1_linear_110_363" x1="3.91156" y1="14.6755" x2="8.20296" y2="20.5253" gradientUnits="userSpaceOnUse">
<stop offset="0.283562" stop-color="#F5C95B"/>
<stop offset="0.858041" stop-color="#D86437"/>
</linearGradient>
</defs>
</svg>
